# xmcd
#
# Track frame offsets:
#	150
#	19925
#	38705
#	56575
#	76117
#	91446
#	115315
#	135428
#	159605
#	199838
#	218201
#	251241
#
# Disc length: 3601 seconds
#
# Revision: 1
# Processed by: cddbd v1.5.2PL0 Copyright (c) Steve Scherf et al.
# Submitted via: audiograbber 1.83.01
#
DISCID=a20e0f0c
DTITLE=Paul Zagler Organization - Beyond Blue Skies
DYEAR=1999
DGENRE=Blues
TTITLE0=What's Going On
TTITLE1=Crazy' Bout You
TTITLE2=Workingmans Blues
TTITLE3=Going To Nowhere
TTITLE4=Midnight Creeper
TTITLE5=Without You
TTITLE6=Ain't No Good
TTITLE7=Fool To Understand
TTITLE8=Am I Right Or Wrong
TTITLE9=Rolling Train
TTITLE10=Beyond Blue Skies
TTITLE11=Leavin' Blues
EXTD=
EXTT0=
EXTT1=
EXTT2=
EXTT3=
EXTT4=
EXTT5=
EXTT6=
EXTT7=
EXTT8=
EXTT9=
EXTT10=
EXTT11=
PLAYORDER=
